PathFileType	4	(X/Y/Z)	/Users/itak/Documents/Research/Walk-IL/dataset/trc/00411_00012.trc
DataRate	CameraRate	NumFrames	NumMarkers	Units	OrigDataRate	OrigDataStartFrame	OrigNumFrames
100.000000	100.000000	4	53	mm	100.000000	228	608
Frame#	Time	RPSI			LPSI			L3			STRN			T10			C7			CLAV			RBAK			LBAK			LSHO			LUPA			LAEL			LAOL			LWTS			LWPS			LFRA			LIFD			LHPS			RSHO			RUPA			RAEL			RAOL			RWTS			RWPS			RFRA			RIFD			RHPS			RBHD			LFHD			RFHD			LBHD			LHIP			RHIP			RASI			LASI			LKNE			LTHI			LANK			LTIP			LTOE			LMT5			LHEE			RKNE			RTHI			RANK			RTIP			RTOE			RMT1			RMT5			RHEE			LHTS			RHTS			LMT1			
		X1	Y1	Z1	X2	Y2	Z2	X3	Y3	Z3	X4	Y4	Z4	X5	Y5	Z5	X6	Y6	Z6	X7	Y7	Z7	X8	Y8	Z8	X9	Y9	Z9	X10	Y10	Z10	X11	Y11	Z11	X12	Y12	Z12	X13	Y13	Z13	X14	Y14	Z14	X15	Y15	Z15	X16	Y16	Z16	X17	Y17	Z17	X18	Y18	Z18	X19	Y19	Z19	X20	Y20	Z20	X21	Y21	Z21	X22	Y22	Z22	X23	Y23	Z23	X24	Y24	Z24	X25	Y25	Z25	X26	Y26	Z26	X27	Y27	Z27	X28	Y28	Z28	X29	Y29	Z29	X30	Y30	Z30	X31	Y31	Z31	X32	Y32	Z32	X33	Y33	Z33	X34	Y34	Z34	X35	Y35	Z35	X36	Y36	Z36	X37	Y37	Z37	X38	Y38	Z38	X39	Y39	Z39	X40	Y40	Z40	X41	Y41	Z41	X42	Y42	Z42	X43	Y43	Z43	X44	Y44	Z44	X45	Y45	Z45	X46	Y46	Z46	X47	Y47	Z47	X48	Y48	Z48	X49	Y49	Z49	X50	Y50	Z50	X51	Y51	Z51	X52	Y52	Z52	X53	Y53	Z53	

229	2.28	-774.0684814453125	983.5387573242188	689.6085205078125	-765.1782836914062	973.522216796875	556.9523315429688	-768.6243896484375	1058.698364257812	633.9332275390625	-514.7603149414062	1194.891723632812	666.3801879882812	-768.9210815429688	1163.099609375	632.8233032226562	-708.7544555664062	1407.552612304688	637.1119384765625	-560.0525512695312	1317.280639648438	660.7880859375	-769.78466796875	1264.856323242188	697.8564453125	-711.8074340820312	1372.691528320312	531.0823364257812	-616.7696533203125	1380.248779296875	493.0374755859375	-637.3590698242188	1267.760375976562	417.1278381347656	-625.9973754882812	1070.95068359375	386.0189819335938	-690.177734375	1051.6708984375	437.3883361816406	-547.8700561523438	853.3464965820312	431.9504699707031	-595.6190185546875	839.676025390625	366.5573425292969	-613.1549682617188	965.9188232421875	375.3897399902344	-543.0406494140625	674.5870971679688	428.2976379394531	-582.1780395507812	753.6680297851562	377.9589538574219	-668.9834594726562	1379.599975585938	801.7068481445312	-689.67333984375	1314.686401367188	859.3485717773438	-679.3637084960938	1050.97509765625	902.8196411132812	-708.5755615234375	1042.99658203125	812.1036376953125	-515.5427856445312	859.515869140625	857.9905395507812	-557.8104858398438	836.0974731445312	913.5722045898438	-644.3644409179688	986.2830810546875	913.431884765625	-497.421875	686.0733642578125	846.2952880859375	-541.24365234375	748.9253540039062	906.230224609375	-645.5150146484375	1597.221435546875	729.757080078125	-515.5443115234375	1577.868896484375	580.2044677734375	-514.961669921875	1590.156372070312	702.2454833984375	-664.5724487304688	1582.714477539062	569.0733032226562	-660.11474609375	967.2996826171875	457.3833618164062	-706.5736083984375	949.8114624023438	812.0867919921875	-568.3469848632812	950.869384765625	776.84912109375	-556.188720703125	962.8109741210938	515.6542358398438	-450.5797729492188	506.2612609863281	511.5093688964844	-506.175537109375	635.5724487304688	489.6654968261719	-599.313720703125	75.69743347167969	514.8887329101562	-523.3762817382812	278.5650939941406	499.1160888671875	-397.3292846679688	66.43962097167969	590.6524658203125	-473.7575988769531	59.36492919921875	510.676025390625	-640.4781494140625	78.50140380859375	569.1576538085938	-692.8259887695312	458.2501220703125	770.2560424804688	-639.2739868164062	715.6253662109375	808.6273803710938	-815.0059204101562	56.50242233276367	720.8145751953125	-701.0018310546875	330.7435302734375	748.4248657226562	-631.5411376953125	40.82176208496094	667.8399658203125	-705.6834716796875	42.74649047851562	634.240234375	-731.6548461914062	47.3284912109375	731.4334106445312	-885.955078125	43.67646789550781	663.6864013671875	-529.3306274414062	757.5220947265625	413.2802734375	-483.5717163085938	754.2224731445312	869.152587890625	-473.5408020019531	64.71195220947266	617.6858520507812	
230	2.29	-769.1913452148438	982.7584838867188	689.7584838867188	-759.9776000976562	972.8412475585938	557.0684814453125	-763.3386840820312	1057.917114257812	634.310791015625	-509.6323852539062	1193.845825195312	667.1754150390625	-763.7222290039062	1162.297729492188	633.306396484375	-703.3717041015625	1406.704711914062	637.8367919921875	-554.7825927734375	1316.2646484375	661.5521240234375	-764.6072998046875	1264.020141601562	698.5623168945312	-706.4923095703125	1371.792114257812	531.9382934570312	-611.4446411132812	1379.242309570312	493.73974609375	-633.0274047851562	1266.989013671875	417.7886962890625	-623.9379272460938	1070.167114257812	386.2922973632812	-688.1454467773438	1051.52978515625	437.9733276367188	-549.8744506835938	850.7786254882812	432.2568054199219	-596.8607788085938	838.6124877929688	366.0470886230469	-612.59912109375	964.9583129882812	375.3252868652344	-549.6079711914062	671.9342041015625	427.9371337890625	-585.6387329101562	752.1821899414062	377.2072448730469	-663.6632080078125	1378.786743164062	802.4325561523438	-684.4638671875	1313.925415039062	860.1434326171875	-673.8311767578125	1050.263061523438	904.2777099609375	-703.2968139648438	1042.133422851562	813.5509643554688	-507.7771911621094	860.9763793945312	858.8637084960938	-549.4891357421875	836.7835693359375	914.5420532226562	-638.1080322265625	985.856201171875	914.70068359375	-486.6690368652344	687.953125	846.82568359375	-531.5537719726562	749.9098510742188	907.043212890625	-640.1991577148438	1596.23974609375	730.5311889648438	-510.2195434570312	1576.98974609375	580.9078369140625	-509.6006469726562	1589.278686523438	702.958251953125	-659.2957763671875	1581.658203125	569.8574829101562	-654.647216796875	966.6002807617188	457.9237670898438	-702.1669921875	948.898193359375	812.5819091796875	-563.7391357421875	949.7761840820312	777.7381591796875	-550.3844604492188	962.133056640625	516.4967041015625	-444.6886901855469	506.142578125	513.5872802734375	-500.6387023925781	635.1813354492188	491.1070556640625	-578.2522583007812	70.97620391845703	519.6497192382812	-509.8425598144531	275.9824523925781	502.4629516601562	-375.53759765625	67.99198150634766	594.3447875976562	-452.2198181152344	58.86421585083008	514.7467041015625	-618.8392333984375	72.24143218994141	574.3509521484375	-690.0751953125	457.3876647949219	770.4869995117188	-635.6414184570312	714.6277465820312	809.1581420898438	-814.8836059570312	56.5573616027832	720.759033203125	-699.1502075195312	329.9126281738281	748.50830078125	-631.3435668945312	40.78607940673828	668.0316772460938	-705.7053833007812	42.68191528320312	634.1966552734375	-731.6510009765625	47.23821258544922	731.46337890625	-885.7879638671875	43.76725006103516	663.6297607421875	-533.3639526367188	754.5123291015625	413.4885559082031	-474.3245849609375	756.2051391601562	869.7716064453125	-451.5260009765625	64.00193786621094	621.7544555664062	
231	2.3	-764.1932373046875	981.7811889648438	689.9071044921875	-754.6173706054688	971.9462890625	557.1954345703125	-757.9611206054688	1056.99853515625	634.6148681640625	-504.36279296875	1192.620361328125	667.9319458007812	-758.4161376953125	1161.384765625	633.7232055664062	-697.8046875	1405.70947265625	638.5157470703125	-549.383056640625	1315.0625	662.2808837890625	-759.2574462890625	1263.046997070312	699.19189453125	-700.995849609375	1370.740112304688	532.7470092773438	-605.9244995117188	1378.07373046875	494.3914184570312	-628.535400390625	1266.03662109375	418.4210510253906	-621.7843017578125	1069.219970703125	386.5724792480469	-685.9909057617188	1051.238159179688	438.6036987304688	-551.8299560546875	848.1395874023438	432.5850524902344	-598.00830078125	837.4874267578125	365.5575866699219	-611.9849853515625	963.8750610351562	375.2683715820312	-556.2220458984375	669.32177734375	427.4438171386719	-589.0263671875	750.7003784179688	376.3998718261719	-658.1873779296875	1377.790771484375	803.1332397460938	-679.10302734375	1312.963012695312	860.8923950195312	-668.127685546875	1049.34375	905.7230834960938	-697.9193725585938	1041.0908203125	815.0026245117188	-499.9011840820312	862.2850341796875	859.74072265625	-541.09326171875	837.2950439453125	915.4913330078125	-631.69140625	985.2503662109375	915.9308471679688	-475.6460571289062	689.7637939453125	847.3444213867188	-521.7483520507812	750.7670288085938	907.8317260742188	-634.7984619140625	1595.0927734375	731.2692260742188	-504.7965698242188	1576.041748046875	581.5667724609375	-504.1499328613281	1588.339233398438	703.6342163085938	-653.921142578125	1580.412841796875	570.61083984375	-649.1055908203125	965.6202392578125	458.4516296386719	-697.6008911132812	947.8715209960938	813.0853271484375	-558.96044921875	948.593994140625	778.607666015625	-544.5415649414062	961.1954956054688	517.3334350585938	-438.8470764160156	505.6773071289062	515.5093383789062	-495.192138671875	634.4854125976562	492.43701171875	-556.724853515625	66.40932464599609	524.5647583007812	-496.0210266113281	273.3136291503906	505.8465881347656	-353.5991516113281	69.91011047363281	598.4105224609375	-430.3735961914062	58.54976272583008	519.1115112304688	-596.7183837890625	66.20040893554688	579.6602783203125	-687.0925903320312	456.4288024902344	770.6405639648438	-631.6454467773438	713.51904296875	809.6455688476562	-814.7236328125	56.6288948059082	720.6796264648438	-697.0952758789062	329.0002136230469	748.505859375	-631.1373291015625	40.71757507324219	668.2363891601562	-705.6795043945312	42.58533477783203	634.1229248046875	-731.6516723632812	47.13724517822266	731.46240234375	-885.6090087890625	43.92989730834961	663.573974609375	-537.4053344726562	751.4818115234375	413.6627197265625	-464.9691772460938	758.1117553710938	870.442626953125	-429.3440551757812	63.68442535400391	626.11474609375	
232	2.31	-759.0540771484375	980.6054077148438	690.0770874023438	-749.0787353515625	970.8258056640625	557.3605346679688	-752.5047607421875	1055.950927734375	634.8764038085938	-498.9442138671875	1191.233764648438	668.655029296875	-752.9774169921875	1160.3583984375	634.0825805664062	-692.0547485351562	1404.56884765625	639.151123046875	-543.8504638671875	1313.692504882812	662.9759521484375	-753.7265625	1261.947998046875	699.7527465820312	-695.3031616210938	1369.538330078125	533.4962158203125	-600.2083740234375	1376.75341796875	494.9950866699219	-623.8734741210938	1264.91650390625	419.02392578125	-619.5265502929688	1068.125122070312	386.8765258789062	-683.6958618164062	1050.809448242188	439.2877197265625	-553.6946411132812	845.4552001953125	432.9250183105469	-599.0585327148438	836.3104248046875	365.1007690429688	-611.3028564453125	962.6849975585938	375.23388671875	-562.809814453125	666.7760009765625	426.8258666992188	-592.3052978515625	749.2338256835938	375.5585021972656	-652.5714721679688	1376.61962890625	803.802734375	-673.597900390625	1311.8115234375	861.5914916992188	-662.2327880859375	1048.234252929688	907.1278686523438	-692.4081420898438	1039.875854492188	816.43994140625	-491.9346618652344	863.4264526367188	860.610595703125	-532.6339721679688	837.6343383789062	916.4132690429688	-625.1157836914062	984.4782104492188	917.1110229492188	-464.4297180175781	691.4799194335938	847.8778076171875	-511.8500671386719	751.49267578125	908.6114501953125	-629.3020629882812	1593.787719726562	731.9650268554688	-499.271240234375	1575.01806640625	582.181640625	-498.606201171875	1587.335693359375	704.2718505859375	-648.4378662109375	1578.989013671875	571.335693359375	-643.4873046875	964.3702392578125	458.987548828125	-692.8450927734375	946.72021484375	813.5972900390625	-553.9902954101562	947.3277587890625	779.4512939453125	-538.7010498046875	960.0130615234375	518.169189453125	-433.0090637207031	504.8833618164062	517.25048828125	-489.7902221679688	633.5233764648438	493.64990234375	-534.8414916992188	62.07915115356445	529.6121215820312	-481.96044921875	270.6145629882812	509.2420043945312	-331.6441650390625	72.19533538818359	602.8508911132812	-408.3242797851562	58.44411087036133	523.7628784179688	-574.2679443359375	60.48772048950195	585.0367431640625	-683.941162109375	455.3902587890625	770.7166137695312	-627.2831420898438	712.307861328125	810.085205078125	-814.5280151367188	56.71881484985352	720.575439453125	-694.8914184570312	328.0217895507812	748.4190673828125	-630.9368896484375	40.61931228637695	668.4470825195312	-705.5999755859375	42.45438003540039	634.0218505859375	-731.6434936523438	47.03982925415039	731.4287109375	-885.4404296875	44.15981292724609	663.5031127929688	-541.4150390625	748.4540405273438	413.7920837402344	-455.470947265625	759.92041015625	871.1599731445312	-407.1194152832031	63.80120086669922	630.7547607421875	
